SplineFontDB: 3.2
FontName: Untitled1
FullName: Untitled1
FamilyName: Untitled1
Weight: Regular
Copyright: Copyright (c) 2025, Bastien
UComments: "2025-5-10: Created with FontForge (http://fontforge.org)"
Version: 001.000
ItalicAngle: 0
UnderlinePosition: -100
UnderlineWidth: 50
Ascent: 800
Descent: 200
InvalidEm: 0
LayerCount: 2
Layer: 0 0 "Arri+AOgA-re" 1
Layer: 1 0 "Avant" 0
XUID: [1021 32 1993619575 2836294]
OS2Version: 0
OS2_WeightWidthSlopeOnly: 0
OS2_UseTypoMetrics: 1
CreationTime: 1746912512
ModificationTime: 1746912512
OS2TypoAscent: 0
OS2TypoAOffset: 1
OS2TypoDescent: 0
OS2TypoDOffset: 1
OS2TypoLinegap: 0
OS2WinAscent: 0
OS2WinAOffset: 1
OS2WinDescent: 0
OS2WinDOffset: 1
HheadAscent: 0
HheadAOffset: 1
HheadDescent: 0
HheadDOffset: 1
OS2Vendor: 'PfEd'
DEI: 91125
Encoding: ISO8859-1
UnicodeInterp: none
NameList: AGL For New Fonts
DisplaySize: -48
AntiAlias: 1
FitToEm: 0
BeginChars: 256 25

StartChar: A
Encoding: 65 65 0
Width: 586
Flags: HW
LayerCount: 2
Fore
SplineSet
261.43359375 702.241210938 m 1
 323.866210938 702.241210938 l 1
 97.548828125 19.3916015625 l 1
 19.5087890625 19.3916015625 l 1
 261.43359375 702.241210938 l 1
261.43359375 702.241210938 m 1
 323.866210938 702.241210938 l 1
 565.791015625 19.3916015625 l 1
 487.750976562 19.3916015625 l 1
 261.43359375 702.241210938 l 1
128.765625 193.033203125 m 1
 128.765625 255.46484375 l 1
 456.533203125 255.46484375 l 1
 456.533203125 193.033203125 l 1
 128.765625 193.033203125 l 1
-0.5439453125 19.935546875 m 1
 -0.5439453125 18.84765625 l 1
 585.84375 18.84765625 l 1
 585.84375 19.935546875 l 1
 -0.5439453125 19.935546875 l 1
-0.5439453125 800.336914062 m 1
 -0.5439453125 799.249023438 l 1
 585.84375 799.249023438 l 1
 585.84375 800.336914062 l 1
 -0.5439453125 800.336914062 l 1
-0.5439453125 -198.577148438 m 1
 -0.5439453125 -199.665039062 l 1
 585.84375 -199.665039062 l 1
 585.84375 -198.577148438 l 1
 -0.5439453125 -198.577148438 l 1
-0.5439453125 -199.665039062 m 1
 0.5439453125 -199.665039062 l 1
 0.5439453125 800.336914062 l 1
 -0.5439453125 800.336914062 l 1
 -0.5439453125 -199.665039062 l 1
584.755859375 -199.665039062 m 1
 585.84375 -199.665039062 l 1
 585.84375 800.336914062 l 1
 584.755859375 800.336914062 l 1
 584.755859375 -199.665039062 l 1
EndSplineSet
EndChar

StartChar: B
Encoding: 66 66 1
Width: 586
Flags: HW
LayerCount: 2
Fore
SplineSet
101.452148438 639.809570312 m 1
 101.452148438 702.241210938 l 1
 313.137695312 702.241210938 l 2
 432.448242188 702.241210938 518.969726562 646.01953125 518.969726562 534.458984375 c 0
 518.969726562 424.729492188 431.588867188 371.869140625 313.137695312 371.869140625 c 1
 313.137695312 413.491210938 l 1
 390.216796875 413.491210938 440.9296875 458.807617188 440.9296875 534.458984375 c 0
 440.9296875 604.147460938 387.411132812 639.809570312 313.137695312 639.809570312 c 2
 101.452148438 639.809570312 l 1
101.452148438 413.491210938 m 1
 313.137695312 413.491210938 l 1
 313.137695312 351.05859375 l 1
 101.452148438 351.05859375 l 1
 101.452148438 413.491210938 l 1
313.137695312 351.05859375 m 1
 313.137695312 392.680664062 l 1
 449.857421875 392.680664062 554.086914062 338.858398438 554.086914062 214.4921875 c 0
 554.086914062 84.3642578125 452.584960938 19.3916015625 313.137695312 19.3916015625 c 2
 101.452148438 19.3916015625 l 1
 101.452148438 81.82421875 l 1
 313.137695312 81.82421875 l 2
 407.546875 81.82421875 476.046875 126.240234375 476.046875 214.4921875 c 0
 476.046875 304.155273438 408.206054688 351.05859375 313.137695312 351.05859375 c 1
62.431640625 702.241210938 m 1
 140.471679688 702.241210938 l 1
 140.471679688 19.3916015625 l 1
 62.431640625 19.3916015625 l 1
 62.431640625 702.241210938 l 1
-0.5439453125 19.935546875 m 1
 -0.5439453125 18.84765625 l 1
 585.84375 18.84765625 l 1
 585.84375 19.935546875 l 1
 -0.5439453125 19.935546875 l 1
-0.5439453125 800.336914062 m 1
 -0.5439453125 799.249023438 l 1
 585.84375 799.249023438 l 1
 585.84375 800.336914062 l 1
 -0.5439453125 800.336914062 l 1
-0.5439453125 -198.577148438 m 1
 -0.5439453125 -199.665039062 l 1
 585.84375 -199.665039062 l 1
 585.84375 -198.577148438 l 1
 -0.5439453125 -198.577148438 l 1
-0.5439453125 -199.665039062 m 1
 0.5439453125 -199.665039062 l 1
 0.5439453125 800.336914062 l 1
 -0.5439453125 800.336914062 l 1
 -0.5439453125 -199.665039062 l 1
584.755859375 -199.665039062 m 1
 585.84375 -199.665039062 l 1
 585.84375 800.336914062 l 1
 584.755859375 800.336914062 l 1
 584.755859375 -199.665039062 l 1
EndSplineSet
EndChar

StartChar: C
Encoding: 67 67 2
Width: 586
Flags: HW
LayerCount: 2
Fore
SplineSet
516.401367188 531.895507812 m 1
 485.651367188 602.190429688 416.202148438 647.614257812 339.474609375 647.614257812 c 0
 181.868164062 647.614257812 124.864257812 533.540039062 124.864257812 360.81640625 c 0
 124.864257812 191.809570312 184.09375 81.82421875 339.474609375 81.82421875 c 0
 416.202148438 81.82421875 485.651367188 127.247070312 516.401367188 197.54296875 c 1
 560.547851562 153.396484375 l 1
 517.572265625 71.03515625 432.375 19.3916015625 339.474609375 19.3916015625 c 0
 137.986328125 19.3916015625 46.8232421875 148.677734375 46.8232421875 360.81640625 c 0
 46.8232421875 576.581054688 136.000976562 710.045898438 339.474609375 710.045898438 c 0
 432.375 710.045898438 517.572265625 658.403320312 560.547851562 576.041015625 c 1
 516.401367188 531.895507812 l 1
-0.5439453125 19.935546875 m 1
 -0.5439453125 18.84765625 l 1
 585.84375 18.84765625 l 1
 585.84375 19.935546875 l 1
 -0.5439453125 19.935546875 l 1
-0.5439453125 800.336914062 m 1
 -0.5439453125 799.249023438 l 1
 585.84375 799.249023438 l 1
 585.84375 800.336914062 l 1
 -0.5439453125 800.336914062 l 1
-0.5439453125 -198.577148438 m 1
 -0.5439453125 -199.665039062 l 1
 585.84375 -199.665039062 l 1
 585.84375 -198.577148438 l 1
 -0.5439453125 -198.577148438 l 1
-0.5439453125 -199.665039062 m 1
 0.5439453125 -199.665039062 l 1
 0.5439453125 800.336914062 l 1
 -0.5439453125 800.336914062 l 1
 -0.5439453125 -199.665039062 l 1
584.755859375 -199.665039062 m 1
 585.84375 -199.665039062 l 1
 585.84375 800.336914062 l 1
 584.755859375 800.336914062 l 1
 584.755859375 -199.665039062 l 1
EndSplineSet
EndChar

StartChar: D
Encoding: 68 68 3
Width: 586
Flags: HW
LayerCount: 2
Fore
SplineSet
62.431640625 639.809570312 m 1
 62.431640625 702.241210938 l 1
 263.3828125 702.241210938 l 2
 444.856445312 702.241210938 538.4765625 563.620117188 538.4765625 370.569335938 c 0
 538.4765625 168.850585938 449.796875 19.3916015625 263.3828125 19.3916015625 c 2
 62.431640625 19.3916015625 l 1
 62.431640625 81.82421875 l 1
 263.3828125 81.82421875 l 2
 407.32421875 81.82421875 460.435546875 209.255859375 460.435546875 370.569335938 c 0
 460.435546875 523.020507812 401.689453125 639.809570312 263.3828125 639.809570312 c 2
 62.431640625 639.809570312 l 1
62.431640625 702.241210938 m 1
 140.471679688 702.241210938 l 1
 140.471679688 19.3916015625 l 1
 62.431640625 19.3916015625 l 1
 62.431640625 702.241210938 l 1
-0.5439453125 19.935546875 m 1
 -0.5439453125 18.84765625 l 1
 585.84375 18.84765625 l 1
 585.84375 19.935546875 l 1
 -0.5439453125 19.935546875 l 1
-0.5439453125 800.336914062 m 1
 -0.5439453125 799.249023438 l 1
 585.84375 799.249023438 l 1
 585.84375 800.336914062 l 1
 -0.5439453125 800.336914062 l 1
-0.5439453125 -198.577148438 m 1
 -0.5439453125 -199.665039062 l 1
 585.84375 -199.665039062 l 1
 585.84375 -198.577148438 l 1
 -0.5439453125 -198.577148438 l 1
-0.5439453125 -199.665039062 m 1
 0.5439453125 -199.665039062 l 1
 0.5439453125 800.336914062 l 1
 -0.5439453125 800.336914062 l 1
 -0.5439453125 -199.665039062 l 1
584.755859375 -199.665039062 m 1
 585.84375 -199.665039062 l 1
 585.84375 800.336914062 l 1
 584.755859375 800.336914062 l 1
 584.755859375 -199.665039062 l 1
EndSplineSet
EndChar

StartChar: E
Encoding: 69 69 4
Width: 586
Flags: HW
LayerCount: 2
Fore
SplineSet
62.431640625 702.241210938 m 1
 140.471679688 702.241210938 l 1
 140.471679688 19.3916015625 l 1
 62.431640625 19.3916015625 l 1
 62.431640625 702.241210938 l 1
101.452148438 639.809570312 m 1
 101.452148438 702.241210938 l 1
 526.766601562 702.241210938 l 1
 526.766601562 639.809570312 l 1
 101.452148438 639.809570312 l 1
101.452148438 329.600585938 m 1
 101.452148438 392.033203125 l 1
 468.232421875 392.033203125 l 1
 468.232421875 329.600585938 l 1
 101.452148438 329.600585938 l 1
101.452148438 19.3916015625 m 1
 101.452148438 81.82421875 l 1
 556.033203125 81.82421875 l 1
 556.033203125 19.3916015625 l 1
 101.452148438 19.3916015625 l 1
-0.5439453125 19.935546875 m 1
 -0.5439453125 18.84765625 l 1
 585.84375 18.84765625 l 1
 585.84375 19.935546875 l 1
 -0.5439453125 19.935546875 l 1
-0.5439453125 800.336914062 m 1
 -0.5439453125 799.249023438 l 1
 585.84375 799.249023438 l 1
 585.84375 800.336914062 l 1
 -0.5439453125 800.336914062 l 1
-0.5439453125 -198.577148438 m 1
 -0.5439453125 -199.665039062 l 1
 585.84375 -199.665039062 l 1
 585.84375 -198.577148438 l 1
 -0.5439453125 -198.577148438 l 1
-0.5439453125 -199.665039062 m 1
 0.5439453125 -199.665039062 l 1
 0.5439453125 800.336914062 l 1
 -0.5439453125 800.336914062 l 1
 -0.5439453125 -199.665039062 l 1
584.755859375 -199.665039062 m 1
 585.84375 -199.665039062 l 1
 585.84375 800.336914062 l 1
 584.755859375 800.336914062 l 1
 584.755859375 -199.665039062 l 1
EndSplineSet
EndChar

StartChar: F
Encoding: 70 70 5
Width: 586
Flags: HW
LayerCount: 2
Fore
SplineSet
62.431640625 702.241210938 m 1
 140.471679688 702.241210938 l 1
 140.471679688 19.3916015625 l 1
 62.431640625 19.3916015625 l 1
 62.431640625 702.241210938 l 1
101.452148438 639.809570312 m 1
 101.452148438 702.241210938 l 1
 526.766601562 702.241210938 l 1
 526.766601562 639.809570312 l 1
 101.452148438 639.809570312 l 1
101.452148438 329.600585938 m 1
 101.452148438 392.033203125 l 1
 468.232421875 392.033203125 l 1
 468.232421875 329.600585938 l 1
 101.452148438 329.600585938 l 1
-0.5439453125 19.935546875 m 1
 -0.5439453125 18.84765625 l 1
 585.84375 18.84765625 l 1
 585.84375 19.935546875 l 1
 -0.5439453125 19.935546875 l 1
-0.5439453125 800.336914062 m 1
 -0.5439453125 799.249023438 l 1
 585.84375 799.249023438 l 1
 585.84375 800.336914062 l 1
 -0.5439453125 800.336914062 l 1
-0.5439453125 -198.577148438 m 1
 -0.5439453125 -199.665039062 l 1
 585.84375 -199.665039062 l 1
 585.84375 -198.577148438 l 1
 -0.5439453125 -198.577148438 l 1
-0.5439453125 -199.665039062 m 1
 0.5439453125 -199.665039062 l 1
 0.5439453125 800.336914062 l 1
 -0.5439453125 800.336914062 l 1
 -0.5439453125 -199.665039062 l 1
584.755859375 -199.665039062 m 1
 585.84375 -199.665039062 l 1
 585.84375 800.336914062 l 1
 584.755859375 800.336914062 l 1
 584.755859375 -199.665039062 l 1
EndSplineSet
EndChar

StartChar: G
Encoding: 71 71 6
Width: 586
Flags: HW
LayerCount: 2
Fore
SplineSet
494.330078125 531.895507812 m 1
 465.67578125 601.889648438 397.548828125 647.614257812 321.916992188 647.614257812 c 0
 178.555664062 647.614257812 124.864257812 521.2421875 124.864257812 360.81640625 c 0
 124.864257812 203.943359375 180.83984375 81.82421875 321.916992188 81.82421875 c 0
 387.655273438 81.82421875 450.310546875 109.6953125 494.330078125 158.520507812 c 1
 538.4765625 114.374023438 l 1
 482.73828125 53.8359375 404.206054688 19.3916015625 321.916992188 19.3916015625 c 0
 138.009765625 19.3916015625 46.8232421875 163.446289062 46.8232421875 360.81640625 c 0
 46.8232421875 561.665039062 136.009765625 710.045898438 321.916992188 710.045898438 c 0
 413.670898438 710.045898438 497.532226562 658.153320312 538.4765625 576.041015625 c 1
 494.330078125 531.895507812 l 1
460.435546875 114.374023438 m 1
 460.435546875 360.81640625 l 1
 538.4765625 360.81640625 l 1
 538.4765625 114.374023438 l 1
 460.435546875 114.374023438 l 1
538.4765625 392.033203125 m 1
 538.4765625 329.600585938 l 1
 292.649414062 329.600585938 l 1
 292.649414062 392.033203125 l 1
 538.4765625 392.033203125 l 1
-0.5439453125 19.935546875 m 1
 -0.5439453125 18.84765625 l 1
 585.84375 18.84765625 l 1
 585.84375 19.935546875 l 1
 -0.5439453125 19.935546875 l 1
-0.5439453125 800.336914062 m 1
 -0.5439453125 799.249023438 l 1
 585.84375 799.249023438 l 1
 585.84375 800.336914062 l 1
 -0.5439453125 800.336914062 l 1
-0.5439453125 -198.577148438 m 1
 -0.5439453125 -199.665039062 l 1
 585.84375 -199.665039062 l 1
 585.84375 -198.577148438 l 1
 -0.5439453125 -198.577148438 l 1
-0.5439453125 -199.665039062 m 1
 0.5439453125 -199.665039062 l 1
 0.5439453125 800.336914062 l 1
 -0.5439453125 800.336914062 l 1
 -0.5439453125 -199.665039062 l 1
584.755859375 -199.665039062 m 1
 585.84375 -199.665039062 l 1
 585.84375 800.336914062 l 1
 584.755859375 800.336914062 l 1
 584.755859375 -199.665039062 l 1
EndSplineSet
EndChar

StartChar: H
Encoding: 72 72 7
Width: 586
Flags: HW
LayerCount: 2
Fore
SplineSet
62.431640625 702.241210938 m 1
 140.471679688 702.241210938 l 1
 140.471679688 19.3916015625 l 1
 62.431640625 19.3916015625 l 1
 62.431640625 702.241210938 l 1
444.827148438 19.3916015625 m 1
 444.827148438 702.241210938 l 1
 522.868164062 702.241210938 l 1
 522.868164062 19.3916015625 l 1
 444.827148438 19.3916015625 l 1
101.452148438 363.745117188 m 1
 101.452148438 426.177734375 l 1
 483.84765625 426.177734375 l 1
 483.84765625 363.745117188 l 1
 101.452148438 363.745117188 l 1
-0.5439453125 19.935546875 m 1
 -0.5439453125 18.84765625 l 1
 585.84375 18.84765625 l 1
 585.84375 19.935546875 l 1
 -0.5439453125 19.935546875 l 1
-0.5439453125 800.336914062 m 1
 -0.5439453125 799.249023438 l 1
 585.84375 799.249023438 l 1
 585.84375 800.336914062 l 1
 -0.5439453125 800.336914062 l 1
-0.5439453125 -198.577148438 m 1
 -0.5439453125 -199.665039062 l 1
 585.84375 -199.665039062 l 1
 585.84375 -198.577148438 l 1
 -0.5439453125 -198.577148438 l 1
-0.5439453125 -199.665039062 m 1
 0.5439453125 -199.665039062 l 1
 0.5439453125 800.336914062 l 1
 -0.5439453125 800.336914062 l 1
 -0.5439453125 -199.665039062 l 1
584.755859375 -199.665039062 m 1
 585.84375 -199.665039062 l 1
 585.84375 800.336914062 l 1
 584.755859375 800.336914062 l 1
 584.755859375 -199.665039062 l 1
EndSplineSet
EndChar

StartChar: I
Encoding: 73 73 8
Width: 586
Flags: HW
LayerCount: 2
Fore
SplineSet
253.629882812 702.241210938 m 1
 331.669921875 702.241210938 l 1
 331.669921875 19.3916015625 l 1
 253.629882812 19.3916015625 l 1
 253.629882812 702.241210938 l 1
-0.5439453125 19.935546875 m 1
 -0.5439453125 18.84765625 l 1
 585.84375 18.84765625 l 1
 585.84375 19.935546875 l 1
 -0.5439453125 19.935546875 l 1
-0.5439453125 800.336914062 m 1
 -0.5439453125 799.249023438 l 1
 585.84375 799.249023438 l 1
 585.84375 800.336914062 l 1
 -0.5439453125 800.336914062 l 1
-0.5439453125 -198.577148438 m 1
 -0.5439453125 -199.665039062 l 1
 585.84375 -199.665039062 l 1
 585.84375 -198.577148438 l 1
 -0.5439453125 -198.577148438 l 1
-0.5439453125 -199.665039062 m 1
 0.5439453125 -199.665039062 l 1
 0.5439453125 800.336914062 l 1
 -0.5439453125 800.336914062 l 1
 -0.5439453125 -199.665039062 l 1
584.755859375 -199.665039062 m 1
 585.84375 -199.665039062 l 1
 585.84375 800.336914062 l 1
 584.755859375 800.336914062 l 1
 584.755859375 -199.665039062 l 1
EndSplineSet
EndChar

StartChar: J
Encoding: 74 74 9
Width: 586
Flags: HW
LayerCount: 2
Fore
SplineSet
444.827148438 702.241210938 m 1
 522.868164062 702.241210938 l 1
 522.868164062 210.58984375 l 2
 522.868164062 94.5439453125 414.5 11.587890625 292.649414062 11.587890625 c 0
 183.84375 11.587890625 88.9677734375 85.5595703125 62.431640625 191.080078125 c 1
 130.016601562 230.099609375 l 1
 133.604492188 142.880859375 205.356445312 74.01953125 292.649414062 74.01953125 c 0
 374.002929688 74.01953125 444.827148438 132.158203125 444.827148438 210.58984375 c 2
 444.827148438 702.241210938 l 1
196.42578125 639.809570312 m 1
 196.42578125 702.241210938 l 1
 483.84765625 702.241210938 l 1
 483.84765625 639.809570312 l 1
 196.42578125 639.809570312 l 1
-0.5439453125 19.935546875 m 1
 -0.5439453125 18.84765625 l 1
 585.84375 18.84765625 l 1
 585.84375 19.935546875 l 1
 -0.5439453125 19.935546875 l 1
-0.5439453125 800.336914062 m 1
 -0.5439453125 799.249023438 l 1
 585.84375 799.249023438 l 1
 585.84375 800.336914062 l 1
 -0.5439453125 800.336914062 l 1
-0.5439453125 -198.577148438 m 1
 -0.5439453125 -199.665039062 l 1
 585.84375 -199.665039062 l 1
 585.84375 -198.577148438 l 1
 -0.5439453125 -198.577148438 l 1
-0.5439453125 -199.665039062 m 1
 0.5439453125 -199.665039062 l 1
 0.5439453125 800.336914062 l 1
 -0.5439453125 800.336914062 l 1
 -0.5439453125 -199.665039062 l 1
584.755859375 -199.665039062 m 1
 585.84375 -199.665039062 l 1
 585.84375 800.336914062 l 1
 584.755859375 800.336914062 l 1
 584.755859375 -199.665039062 l 1
EndSplineSet
EndChar

StartChar: K
Encoding: 75 75 10
Width: 586
Flags: HW
LayerCount: 2
Fore
SplineSet
62.431640625 702.241210938 m 1
 140.471679688 702.241210938 l 1
 140.471679688 19.3916015625 l 1
 62.431640625 19.3916015625 l 1
 62.431640625 702.241210938 l 1
454.580078125 702.241210938 m 1
 556.033203125 702.241210938 l 1
 241.924804688 360.81640625 l 1
 556.033203125 19.3916015625 l 1
 454.580078125 19.3916015625 l 1
 140.471679688 360.81640625 l 1
 454.580078125 702.241210938 l 1
-0.5439453125 19.935546875 m 1
 -0.5439453125 18.84765625 l 1
 585.84375 18.84765625 l 1
 585.84375 19.935546875 l 1
 -0.5439453125 19.935546875 l 1
-0.5439453125 800.336914062 m 1
 -0.5439453125 799.249023438 l 1
 585.84375 799.249023438 l 1
 585.84375 800.336914062 l 1
 -0.5439453125 800.336914062 l 1
-0.5439453125 -198.577148438 m 1
 -0.5439453125 -199.665039062 l 1
 585.84375 -199.665039062 l 1
 585.84375 -198.577148438 l 1
 -0.5439453125 -198.577148438 l 1
-0.5439453125 -199.665039062 m 1
 0.5439453125 -199.665039062 l 1
 0.5439453125 800.336914062 l 1
 -0.5439453125 800.336914062 l 1
 -0.5439453125 -199.665039062 l 1
584.755859375 -199.665039062 m 1
 585.84375 -199.665039062 l 1
 585.84375 800.336914062 l 1
 584.755859375 800.336914062 l 1
 584.755859375 -199.665039062 l 1
EndSplineSet
EndChar

StartChar: L
Encoding: 76 76 11
Width: 586
Flags: HW
LayerCount: 2
Fore
SplineSet
62.431640625 702.241210938 m 1
 140.471679688 702.241210938 l 1
 140.471679688 19.3916015625 l 1
 62.431640625 19.3916015625 l 1
 62.431640625 702.241210938 l 1
101.452148438 19.3916015625 m 1
 101.452148438 81.82421875 l 1
 538.474609375 81.82421875 l 1
 538.474609375 19.3916015625 l 1
 101.452148438 19.3916015625 l 1
-0.5439453125 19.935546875 m 1
 -0.5439453125 18.84765625 l 1
 585.84375 18.84765625 l 1
 585.84375 19.935546875 l 1
 -0.5439453125 19.935546875 l 1
-0.5439453125 800.336914062 m 1
 -0.5439453125 799.249023438 l 1
 585.84375 799.249023438 l 1
 585.84375 800.336914062 l 1
 -0.5439453125 800.336914062 l 1
-0.5439453125 -198.577148438 m 1
 -0.5439453125 -199.665039062 l 1
 585.84375 -199.665039062 l 1
 585.84375 -198.577148438 l 1
 -0.5439453125 -198.577148438 l 1
-0.5439453125 -199.665039062 m 1
 0.5439453125 -199.665039062 l 1
 0.5439453125 800.336914062 l 1
 -0.5439453125 800.336914062 l 1
 -0.5439453125 -199.665039062 l 1
584.755859375 -199.665039062 m 1
 585.84375 -199.665039062 l 1
 585.84375 800.336914062 l 1
 584.755859375 800.336914062 l 1
 584.755859375 -199.665039062 l 1
EndSplineSet
EndChar

StartChar: M
Encoding: 77 77 12
Width: 586
Flags: HW
LayerCount: 2
Fore
SplineSet
62.431640625 702.241210938 m 1
 140.471679688 702.241210938 l 1
 140.471679688 19.3916015625 l 1
 62.431640625 19.3916015625 l 1
 62.431640625 702.241210938 l 1
444.827148438 702.241210938 m 1
 522.868164062 702.241210938 l 1
 522.868164062 19.3916015625 l 1
 444.827148438 19.3916015625 l 1
 444.827148438 702.241210938 l 1
62.431640625 702.241210938 m 1
 140.471679688 702.241210938 l 1
 331.669921875 190.104492188 l 1
 253.629882812 190.104492188 l 1
 62.431640625 702.241210938 l 1
444.827148438 702.241210938 m 1
 522.868164062 702.241210938 l 1
 331.669921875 190.104492188 l 1
 253.629882812 190.104492188 l 1
 444.827148438 702.241210938 l 1
-0.5439453125 19.935546875 m 1
 -0.5439453125 18.84765625 l 1
 585.84375 18.84765625 l 1
 585.84375 19.935546875 l 1
 -0.5439453125 19.935546875 l 1
-0.5439453125 800.336914062 m 1
 -0.5439453125 799.249023438 l 1
 585.84375 799.249023438 l 1
 585.84375 800.336914062 l 1
 -0.5439453125 800.336914062 l 1
-0.5439453125 -198.577148438 m 1
 -0.5439453125 -199.665039062 l 1
 585.84375 -199.665039062 l 1
 585.84375 -198.577148438 l 1
 -0.5439453125 -198.577148438 l 1
-0.5439453125 -199.665039062 m 1
 0.5439453125 -199.665039062 l 1
 0.5439453125 800.336914062 l 1
 -0.5439453125 800.336914062 l 1
 -0.5439453125 -199.665039062 l 1
584.755859375 -199.665039062 m 1
 585.84375 -199.665039062 l 1
 585.84375 800.336914062 l 1
 584.755859375 800.336914062 l 1
 584.755859375 -199.665039062 l 1
EndSplineSet
EndChar

StartChar: N
Encoding: 78 78 13
Width: 586
Flags: HW
LayerCount: 2
Fore
SplineSet
62.431640625 702.241210938 m 1
 140.471679688 702.241210938 l 1
 140.471679688 19.3916015625 l 1
 62.431640625 19.3916015625 l 1
 62.431640625 702.241210938 l 1
444.827148438 702.241210938 m 1
 522.868164062 702.241210938 l 1
 522.868164062 19.3916015625 l 1
 444.827148438 19.3916015625 l 1
 444.827148438 702.241210938 l 1
62.431640625 702.241210938 m 1
 156.080078125 702.241210938 l 1
 522.868164062 19.3916015625 l 1
 429.219726562 19.3916015625 l 1
 62.431640625 702.241210938 l 1
-0.5439453125 19.935546875 m 1
 -0.5439453125 18.84765625 l 1
 585.84375 18.84765625 l 1
 585.84375 19.935546875 l 1
 -0.5439453125 19.935546875 l 1
-0.5439453125 800.336914062 m 1
 -0.5439453125 799.249023438 l 1
 585.84375 799.249023438 l 1
 585.84375 800.336914062 l 1
 -0.5439453125 800.336914062 l 1
-0.5439453125 -198.577148438 m 1
 -0.5439453125 -199.665039062 l 1
 585.84375 -199.665039062 l 1
 585.84375 -198.577148438 l 1
 -0.5439453125 -198.577148438 l 1
-0.5439453125 -199.665039062 m 1
 0.5439453125 -199.665039062 l 1
 0.5439453125 800.336914062 l 1
 -0.5439453125 800.336914062 l 1
 -0.5439453125 -199.665039062 l 1
584.755859375 -199.665039062 m 1
 585.84375 -199.665039062 l 1
 585.84375 800.336914062 l 1
 584.755859375 800.336914062 l 1
 584.755859375 -199.665039062 l 1
EndSplineSet
EndChar

StartChar: O
Encoding: 79 79 14
Width: 586
Flags: HW
LayerCount: 2
Fore
SplineSet
292.649414062 647.614257812 m 1
 292.649414062 710.045898438 l 1
 468.986328125 710.045898438 538.4765625 557.055664062 538.4765625 360.81640625 c 0
 538.4765625 164.578125 468.986328125 11.587890625 292.649414062 11.587890625 c 0
 116.313476562 11.587890625 46.8232421875 164.578125 46.8232421875 360.81640625 c 0
 46.8232421875 557.055664062 116.313476562 710.045898438 292.649414062 710.045898438 c 1
 292.649414062 647.614257812 l 1
 156.973632812 647.614257812 124.864257812 516.93359375 124.864257812 360.81640625 c 0
 124.864257812 204.700195312 156.973632812 74.01953125 292.649414062 74.01953125 c 0
 428.326171875 74.01953125 460.435546875 204.700195312 460.435546875 360.81640625 c 0
 460.435546875 516.93359375 428.326171875 647.614257812 292.649414062 647.614257812 c 1
-0.5439453125 19.935546875 m 1
 -0.5439453125 18.84765625 l 1
 585.84375 18.84765625 l 1
 585.84375 19.935546875 l 1
 -0.5439453125 19.935546875 l 1
-0.5439453125 800.336914062 m 1
 -0.5439453125 799.249023438 l 1
 585.84375 799.249023438 l 1
 585.84375 800.336914062 l 1
 -0.5439453125 800.336914062 l 1
-0.5439453125 -198.577148438 m 1
 -0.5439453125 -199.665039062 l 1
 585.84375 -199.665039062 l 1
 585.84375 -198.577148438 l 1
 -0.5439453125 -198.577148438 l 1
-0.5439453125 -199.665039062 m 1
 0.5439453125 -199.665039062 l 1
 0.5439453125 800.336914062 l 1
 -0.5439453125 800.336914062 l 1
 -0.5439453125 -199.665039062 l 1
584.755859375 -199.665039062 m 1
 585.84375 -199.665039062 l 1
 585.84375 800.336914062 l 1
 584.755859375 800.336914062 l 1
 584.755859375 -199.665039062 l 1
EndSplineSet
EndChar

StartChar: P
Encoding: 80 80 15
Width: 586
Flags: HW
LayerCount: 2
Fore
SplineSet
62.431640625 702.241210938 m 1
 140.471679688 702.241210938 l 1
 140.471679688 19.3916015625 l 1
 62.431640625 19.3916015625 l 1
 62.431640625 702.241210938 l 1
101.452148438 639.809570312 m 1
 101.452148438 702.241210938 l 1
 321.916992188 702.241210938 l 2
 439.450195312 702.241210938 538.4765625 612.713867188 538.4765625 497.384765625 c 0
 538.4765625 382.0546875 439.450195312 292.52734375 321.916992188 292.52734375 c 2
 101.452148438 292.52734375 l 1
 101.452148438 354.959960938 l 1
 321.916992188 354.959960938 l 2
 399.138671875 354.959960938 460.435546875 419.42578125 460.435546875 497.384765625 c 0
 460.435546875 575.34375 399.138671875 639.809570312 321.916992188 639.809570312 c 2
 101.452148438 639.809570312 l 1
-0.5439453125 19.935546875 m 1
 -0.5439453125 18.84765625 l 1
 585.84375 18.84765625 l 1
 585.84375 19.935546875 l 1
 -0.5439453125 19.935546875 l 1
-0.5439453125 800.336914062 m 1
 -0.5439453125 799.249023438 l 1
 585.84375 799.249023438 l 1
 585.84375 800.336914062 l 1
 -0.5439453125 800.336914062 l 1
-0.5439453125 -198.577148438 m 1
 -0.5439453125 -199.665039062 l 1
 585.84375 -199.665039062 l 1
 585.84375 -198.577148438 l 1
 -0.5439453125 -198.577148438 l 1
-0.5439453125 -199.665039062 m 1
 0.5439453125 -199.665039062 l 1
 0.5439453125 800.336914062 l 1
 -0.5439453125 800.336914062 l 1
 -0.5439453125 -199.665039062 l 1
584.755859375 -199.665039062 m 1
 585.84375 -199.665039062 l 1
 585.84375 800.336914062 l 1
 584.755859375 800.336914062 l 1
 584.755859375 -199.665039062 l 1
EndSplineSet
EndChar

StartChar: Q
Encoding: 81 81 16
Width: 586
Flags: HW
LayerCount: 2
Fore
SplineSet
292.649414062 647.614257812 m 1
 292.649414062 710.045898438 l 1
 468.986328125 710.045898438 538.4765625 557.055664062 538.4765625 360.81640625 c 0
 538.4765625 164.578125 468.986328125 11.587890625 292.649414062 11.587890625 c 0
 116.313476562 11.587890625 46.8232421875 164.578125 46.8232421875 360.81640625 c 0
 46.8232421875 557.055664062 116.313476562 710.045898438 292.649414062 710.045898438 c 1
 292.649414062 647.614257812 l 1
 156.973632812 647.614257812 124.864257812 516.93359375 124.864257812 360.81640625 c 0
 124.864257812 204.700195312 156.973632812 74.01953125 292.649414062 74.01953125 c 0
 428.326171875 74.01953125 460.435546875 204.700195312 460.435546875 360.81640625 c 0
 460.435546875 516.93359375 428.326171875 647.614257812 292.649414062 647.614257812 c 1
253.629882812 19.3916015625 m 1
 331.669921875 19.3916015625 l 1
 331.669921875 -44.0107421875 364.158203125 -105.471679688 421.41796875 -105.471679688 c 2
 499.456054688 -105.471679688 l 1
 499.456054688 -167.904296875 l 1
 421.41796875 -167.904296875 l 2
 324.990234375 -167.904296875 253.629882812 -80.6865234375 253.629882812 19.3916015625 c 1
-0.5439453125 19.935546875 m 1
 -0.5439453125 18.84765625 l 1
 585.84375 18.84765625 l 1
 585.84375 19.935546875 l 1
 -0.5439453125 19.935546875 l 1
-0.5439453125 800.336914062 m 1
 -0.5439453125 799.249023438 l 1
 585.84375 799.249023438 l 1
 585.84375 800.336914062 l 1
 -0.5439453125 800.336914062 l 1
-0.5439453125 -198.577148438 m 1
 -0.5439453125 -199.665039062 l 1
 585.84375 -199.665039062 l 1
 585.84375 -198.577148438 l 1
 -0.5439453125 -198.577148438 l 1
-0.5439453125 -199.665039062 m 1
 0.5439453125 -199.665039062 l 1
 0.5439453125 800.336914062 l 1
 -0.5439453125 800.336914062 l 1
 -0.5439453125 -199.665039062 l 1
584.755859375 -199.665039062 m 1
 585.84375 -199.665039062 l 1
 585.84375 800.336914062 l 1
 584.755859375 800.336914062 l 1
 584.755859375 -199.665039062 l 1
EndSplineSet
EndChar

StartChar: R
Encoding: 82 82 17
Width: 586
Flags: HW
LayerCount: 2
Fore
SplineSet
62.431640625 702.241210938 m 1
 140.471679688 702.241210938 l 1
 140.471679688 19.3916015625 l 1
 62.431640625 19.3916015625 l 1
 62.431640625 702.241210938 l 1
101.452148438 639.809570312 m 1
 101.452148438 702.241210938 l 1
 321.916992188 702.241210938 l 2
 439.450195312 702.241210938 538.4765625 612.713867188 538.4765625 497.384765625 c 0
 538.4765625 382.0546875 439.450195312 292.52734375 321.916992188 292.52734375 c 2
 101.452148438 292.52734375 l 1
 101.452148438 354.959960938 l 1
 321.916992188 354.959960938 l 2
 399.138671875 354.959960938 460.435546875 419.42578125 460.435546875 497.384765625 c 0
 460.435546875 575.34375 399.138671875 639.809570312 321.916992188 639.809570312 c 2
 101.452148438 639.809570312 l 1
282.896484375 323.743164062 m 1
 360.936523438 323.743164062 l 1
 538.4765625 19.3916015625 l 1
 460.435546875 19.3916015625 l 1
 282.896484375 323.743164062 l 1
-0.5439453125 19.935546875 m 1
 -0.5439453125 18.84765625 l 1
 585.84375 18.84765625 l 1
 585.84375 19.935546875 l 1
 -0.5439453125 19.935546875 l 1
-0.5439453125 800.336914062 m 1
 -0.5439453125 799.249023438 l 1
 585.84375 799.249023438 l 1
 585.84375 800.336914062 l 1
 -0.5439453125 800.336914062 l 1
-0.5439453125 -198.577148438 m 1
 -0.5439453125 -199.665039062 l 1
 585.84375 -199.665039062 l 1
 585.84375 -198.577148438 l 1
 -0.5439453125 -198.577148438 l 1
-0.5439453125 -199.665039062 m 1
 0.5439453125 -199.665039062 l 1
 0.5439453125 800.336914062 l 1
 -0.5439453125 800.336914062 l 1
 -0.5439453125 -199.665039062 l 1
584.755859375 -199.665039062 m 1
 585.84375 -199.665039062 l 1
 585.84375 800.336914062 l 1
 584.755859375 800.336914062 l 1
 584.755859375 -199.665039062 l 1
EndSplineSet
EndChar

StartChar: S
Encoding: 83 83 18
Width: 586
Flags: HW
LayerCount: 2
Fore
SplineSet
475.625 564.98046875 m 1
 426.825195312 623.1796875 374.451171875 647.614257812 298.5 647.614257812 c 0
 207.424804688 647.614257812 138.51953125 610.598632812 138.51953125 527.401367188 c 0
 138.51953125 454.953125 195.125976562 423.212890625 270.512695312 407.188476562 c 2
 327.767578125 395.018554688 l 2
 448.18359375 369.421875 538.4765625 318.5390625 538.4765625 202.786132812 c 0
 538.4765625 71.2109375 430.407226562 11.587890625 286.799804688 11.587890625 c 0
 183.689453125 11.587890625 112.680664062 45.765625 48.3583984375 126.353515625 c 1
 99.5 162.163085938 l 1
 150.80859375 100.133789062 206.299804688 74.01953125 286.799804688 74.01953125 c 0
 385.380859375 74.01953125 460.435546875 113.046875 460.435546875 202.786132812 c 0
 460.435546875 282.280273438 397.653320312 316.3359375 314.787109375 333.950195312 c 2
 257.532226562 346.120117188 l 2
 144.592773438 370.126953125 60.4794921875 418.688476562 60.4794921875 527.401367188 c 0
 60.4794921875 652.448242188 162.393554688 710.045898438 298.5 710.045898438 c 0
 397.057617188 710.045898438 464.948242188 677.55078125 526.766601562 600.790039062 c 1
 475.625 564.98046875 l 1
-0.5439453125 19.935546875 m 1
 -0.5439453125 18.84765625 l 1
 585.84375 18.84765625 l 1
 585.84375 19.935546875 l 1
 -0.5439453125 19.935546875 l 1
-0.5439453125 800.336914062 m 1
 -0.5439453125 799.249023438 l 1
 585.84375 799.249023438 l 1
 585.84375 800.336914062 l 1
 -0.5439453125 800.336914062 l 1
-0.5439453125 -198.577148438 m 1
 -0.5439453125 -199.665039062 l 1
 585.84375 -199.665039062 l 1
 585.84375 -198.577148438 l 1
 -0.5439453125 -198.577148438 l 1
-0.5439453125 -199.665039062 m 1
 0.5439453125 -199.665039062 l 1
 0.5439453125 800.336914062 l 1
 -0.5439453125 800.336914062 l 1
 -0.5439453125 -199.665039062 l 1
584.755859375 -199.665039062 m 1
 585.84375 -199.665039062 l 1
 585.84375 800.336914062 l 1
 584.755859375 800.336914062 l 1
 584.755859375 -199.665039062 l 1
EndSplineSet
EndChar

StartChar: T
Encoding: 84 84 19
Width: 586
Flags: HW
LayerCount: 2
Fore
SplineSet
58.533203125 639.809570312 m 1
 58.533203125 702.241210938 l 1
 526.766601562 702.241210938 l 1
 526.766601562 639.809570312 l 1
 58.533203125 639.809570312 l 1
253.629882812 671.025390625 m 1
 331.669921875 671.025390625 l 1
 331.669921875 19.3916015625 l 1
 253.629882812 19.3916015625 l 1
 253.629882812 671.025390625 l 1
-0.5439453125 19.935546875 m 1
 -0.5439453125 18.84765625 l 1
 585.84375 18.84765625 l 1
 585.84375 19.935546875 l 1
 -0.5439453125 19.935546875 l 1
-0.5439453125 800.336914062 m 1
 -0.5439453125 799.249023438 l 1
 585.84375 799.249023438 l 1
 585.84375 800.336914062 l 1
 -0.5439453125 800.336914062 l 1
-0.5439453125 -198.577148438 m 1
 -0.5439453125 -199.665039062 l 1
 585.84375 -199.665039062 l 1
 585.84375 -198.577148438 l 1
 -0.5439453125 -198.577148438 l 1
-0.5439453125 -199.665039062 m 1
 0.5439453125 -199.665039062 l 1
 0.5439453125 800.336914062 l 1
 -0.5439453125 800.336914062 l 1
 -0.5439453125 -199.665039062 l 1
584.755859375 -199.665039062 m 1
 585.84375 -199.665039062 l 1
 585.84375 800.336914062 l 1
 584.755859375 800.336914062 l 1
 584.755859375 -199.665039062 l 1
EndSplineSet
EndChar

StartChar: U
Encoding: 85 85 20
Width: 586
Flags: HW
LayerCount: 2
Fore
SplineSet
62.431640625 702.241210938 m 1
 140.471679688 702.241210938 l 1
 140.471679688 272.04296875 l 2
 140.471679688 170.099609375 198.951171875 74.01953125 292.649414062 74.01953125 c 0
 386.348632812 74.01953125 444.827148438 170.099609375 444.827148438 272.04296875 c 2
 444.827148438 702.241210938 l 1
 522.868164062 702.241210938 l 1
 522.868164062 272.04296875 l 2
 522.868164062 133.377929688 425.668945312 11.587890625 292.649414062 11.587890625 c 0
 159.630859375 11.587890625 62.431640625 133.377929688 62.431640625 272.04296875 c 2
 62.431640625 702.241210938 l 1
-0.5439453125 19.935546875 m 1
 -0.5439453125 18.84765625 l 1
 585.84375 18.84765625 l 1
 585.84375 19.935546875 l 1
 -0.5439453125 19.935546875 l 1
-0.5439453125 800.336914062 m 1
 -0.5439453125 799.249023438 l 1
 585.84375 799.249023438 l 1
 585.84375 800.336914062 l 1
 -0.5439453125 800.336914062 l 1
-0.5439453125 -198.577148438 m 1
 -0.5439453125 -199.665039062 l 1
 585.84375 -199.665039062 l 1
 585.84375 -198.577148438 l 1
 -0.5439453125 -198.577148438 l 1
-0.5439453125 -199.665039062 m 1
 0.5439453125 -199.665039062 l 1
 0.5439453125 800.336914062 l 1
 -0.5439453125 800.336914062 l 1
 -0.5439453125 -199.665039062 l 1
584.755859375 -199.665039062 m 1
 585.84375 -199.665039062 l 1
 585.84375 800.336914062 l 1
 584.755859375 800.336914062 l 1
 584.755859375 -199.665039062 l 1
EndSplineSet
EndChar

StartChar: V
Encoding: 86 86 21
Width: 586
Flags: HW
LayerCount: 2
Fore
SplineSet
31.2158203125 702.241210938 m 1
 109.255859375 702.241210938 l 1
 331.669921875 19.3916015625 l 1
 253.629882812 19.3916015625 l 1
 31.2158203125 702.241210938 l 1
476.043945312 702.241210938 m 1
 554.083984375 702.241210938 l 1
 331.669921875 19.3916015625 l 1
 253.629882812 19.3916015625 l 1
 476.043945312 702.241210938 l 1
-0.5439453125 19.935546875 m 1
 -0.5439453125 18.84765625 l 1
 585.84375 18.84765625 l 1
 585.84375 19.935546875 l 1
 -0.5439453125 19.935546875 l 1
-0.5439453125 800.336914062 m 1
 -0.5439453125 799.249023438 l 1
 585.84375 799.249023438 l 1
 585.84375 800.336914062 l 1
 -0.5439453125 800.336914062 l 1
-0.5439453125 -198.577148438 m 1
 -0.5439453125 -199.665039062 l 1
 585.84375 -199.665039062 l 1
 585.84375 -198.577148438 l 1
 -0.5439453125 -198.577148438 l 1
-0.5439453125 -199.665039062 m 1
 0.5439453125 -199.665039062 l 1
 0.5439453125 800.336914062 l 1
 -0.5439453125 800.336914062 l 1
 -0.5439453125 -199.665039062 l 1
584.755859375 -199.665039062 m 1
 585.84375 -199.665039062 l 1
 585.84375 800.336914062 l 1
 584.755859375 800.336914062 l 1
 584.755859375 -199.665039062 l 1
EndSplineSet
EndChar

StartChar: W
Encoding: 87 87 22
Width: 586
Flags: HW
LayerCount: 2
Fore
SplineSet
31.2158203125 702.241210938 m 1
 109.255859375 702.241210938 l 1
 212.659179688 19.3916015625 l 1
 150.2265625 19.3916015625 l 1
 31.2158203125 702.241210938 l 1
261.43359375 702.241210938 m 1
 323.866210938 702.241210938 l 1
 212.659179688 19.3916015625 l 1
 150.2265625 19.3916015625 l 1
 261.43359375 702.241210938 l 1
261.43359375 702.241210938 m 1
 323.866210938 702.241210938 l 1
 435.072265625 19.3916015625 l 1
 372.640625 19.3916015625 l 1
 261.43359375 702.241210938 l 1
476.043945312 702.241210938 m 1
 554.083984375 702.241210938 l 1
 435.072265625 19.3916015625 l 1
 372.640625 19.3916015625 l 1
 476.043945312 702.241210938 l 1
-0.5439453125 19.935546875 m 1
 -0.5439453125 18.84765625 l 1
 585.84375 18.84765625 l 1
 585.84375 19.935546875 l 1
 -0.5439453125 19.935546875 l 1
-0.5439453125 800.336914062 m 1
 -0.5439453125 799.249023438 l 1
 585.84375 799.249023438 l 1
 585.84375 800.336914062 l 1
 -0.5439453125 800.336914062 l 1
-0.5439453125 -198.577148438 m 1
 -0.5439453125 -199.665039062 l 1
 585.84375 -199.665039062 l 1
 585.84375 -198.577148438 l 1
 -0.5439453125 -198.577148438 l 1
-0.5439453125 -199.665039062 m 1
 0.5439453125 -199.665039062 l 1
 0.5439453125 800.336914062 l 1
 -0.5439453125 800.336914062 l 1
 -0.5439453125 -199.665039062 l 1
584.755859375 -199.665039062 m 1
 585.84375 -199.665039062 l 1
 585.84375 800.336914062 l 1
 584.755859375 800.336914062 l 1
 584.755859375 -199.665039062 l 1
EndSplineSet
EndChar

StartChar: X
Encoding: 88 88 23
Width: 586
Flags: HW
LayerCount: 2
Fore
SplineSet
31.2158203125 702.241210938 m 1
 109.255859375 702.241210938 l 1
 554.083984375 19.3916015625 l 1
 476.043945312 19.3916015625 l 1
 31.2158203125 702.241210938 l 1
476.043945312 702.241210938 m 1
 554.083984375 702.241210938 l 1
 109.255859375 19.3916015625 l 1
 31.2158203125 19.3916015625 l 1
 476.043945312 702.241210938 l 1
-0.5439453125 19.935546875 m 1
 -0.5439453125 18.84765625 l 1
 585.84375 18.84765625 l 1
 585.84375 19.935546875 l 1
 -0.5439453125 19.935546875 l 1
-0.5439453125 800.336914062 m 1
 -0.5439453125 799.249023438 l 1
 585.84375 799.249023438 l 1
 585.84375 800.336914062 l 1
 -0.5439453125 800.336914062 l 1
-0.5439453125 -198.577148438 m 1
 -0.5439453125 -199.665039062 l 1
 585.84375 -199.665039062 l 1
 585.84375 -198.577148438 l 1
 -0.5439453125 -198.577148438 l 1
-0.5439453125 -199.665039062 m 1
 0.5439453125 -199.665039062 l 1
 0.5439453125 800.336914062 l 1
 -0.5439453125 800.336914062 l 1
 -0.5439453125 -199.665039062 l 1
584.755859375 -199.665039062 m 1
 585.84375 -199.665039062 l 1
 585.84375 800.336914062 l 1
 584.755859375 800.336914062 l 1
 584.755859375 -199.665039062 l 1
EndSplineSet
EndChar

StartChar: Y
Encoding: 89 89 24
Width: 586
Flags: HW
LayerCount: 2
Fore
SplineSet
31.2158203125 702.241210938 m 1
 109.255859375 702.241210938 l 1
 331.669921875 326.671875 l 1
 253.629882812 326.671875 l 1
 31.2158203125 702.241210938 l 1
476.043945312 702.241210938 m 1
 554.083984375 702.241210938 l 1
 331.669921875 326.671875 l 1
 253.629882812 326.671875 l 1
 476.043945312 702.241210938 l 1
253.629882812 326.671875 m 1
 331.669921875 326.671875 l 1
 331.669921875 19.3916015625 l 1
 253.629882812 19.3916015625 l 1
 253.629882812 326.671875 l 1
-0.5439453125 19.935546875 m 1
 -0.5439453125 18.84765625 l 1
 585.84375 18.84765625 l 1
 585.84375 19.935546875 l 1
 -0.5439453125 19.935546875 l 1
-0.5439453125 800.336914062 m 1
 -0.5439453125 799.249023438 l 1
 585.84375 799.249023438 l 1
 585.84375 800.336914062 l 1
 -0.5439453125 800.336914062 l 1
-0.5439453125 -198.577148438 m 1
 -0.5439453125 -199.665039062 l 1
 585.84375 -199.665039062 l 1
 585.84375 -198.577148438 l 1
 -0.5439453125 -198.577148438 l 1
-0.5439453125 -199.665039062 m 1
 0.5439453125 -199.665039062 l 1
 0.5439453125 800.336914062 l 1
 -0.5439453125 800.336914062 l 1
 -0.5439453125 -199.665039062 l 1
584.755859375 -199.665039062 m 1
 585.84375 -199.665039062 l 1
 585.84375 800.336914062 l 1
 584.755859375 800.336914062 l 1
 584.755859375 -199.665039062 l 1
EndSplineSet
EndChar
